<?xml version="1.0" encoding="UTF-8"?><!DOCTYPE svg PUBLIC "-//W3C//DTD SVG 1.1//EN" "http://www.w3.org/Graphics/SVG/1.1/DTD/svg11.dtd"
><svg xmlns="http://www.w3.org/2000/svg" xmlns:xlink="http://www.w3.org/1999/xlink"><defs/>
<symbol id="SOKA-Icon-Berufsausbildungsverfahren" viewBox="9 11 38 38">
<g>
	<path d="M45.1,11.5h-2.7H13.3h-3c-0.7,0-1.2,0.5-1.2,1.2s0.5,1.2,1.2,1.2h1.8v20.7c0,0.7,0.5,1.2,1.2,1.2h12.1l-4.7,5.9
		c-0.4,0.5-0.3,1.3,0.2,1.7c0.2,0.2,0.5,0.3,0.7,0.3c0.3,0,0.7-0.2,0.9-0.4l5.3-6.6l5.2,6.6c0.4,0.5,1.1,0.6,1.7,0.2
		c0.5-0.4,0.6-1.1,0.2-1.7l-4.7-5.9h12.1c0.7,0,1.2-0.5,1.2-1.2V13.9h1.5c0.7,0,1.2-0.5,1.2-1.2S45.7,11.5,45.1,11.5z M41.2,33.4
		H27.8h0H14.5V13.9h26.7V33.4z"/>
	<path d="M20,17l5.3,2.9v3.3l-4.5,2.6c-0.3,0.2-0.4,0.5-0.4,0.8s0.3,0.5,0.6,0.6L36,30.4c0.1,0,0.1,0,0.2,0c0.3,0,0.5-0.1,0.6-0.4
		c0.2-0.3,0.1-0.6-0.1-0.9l-6.6-8.1c-0.2-0.3-0.6-0.4-1-0.2l-2.3,1.4v-2.9c0-0.3-0.2-0.5-0.4-0.7l-5.7-3.1c-0.4-0.2-0.8-0.1-1,0.3
		C19.5,16.3,19.6,16.8,20,17z M29.3,22.6l4.9,5.9l-10.9-2.4l2.7-1.6l1.4,0.9c0.1,0.1,0.3,0.1,0.4,0.1c0.3,0,0.5-0.1,0.6-0.4
		c0.2-0.4,0.1-0.8-0.3-1l-0.7-0.4L29.3,22.6z"/>
</g>
</symbol>
<symbol id="SOKA-Icon-Branchenrente" viewBox="0 0 55 55">
<g>
	<path d="M23.3,15.1c-1.7,0.4-2.7,1.1-2.7,1.2c-0.3,0.2-0.4,0.7-0.2,1c0.2,0.3,0.7,0.4,1,0.2c0,0,1.7-1.2,4.4-1.2
		c2.6,0,4.1,1.2,4.1,1.2c0.1,0.1,0.3,0.2,0.5,0.2c0.2,0,0.4-0.1,0.6-0.3c0.3-0.3,0.2-0.8-0.1-1.1c0,0-0.9-0.7-2.3-1.1
		c2.5-1,4.2-3.4,4.2-6.2c0-3.7-3-6.8-6.8-6.8s-6.8,3-6.8,6.8C19.2,11.7,20.9,14.1,23.3,15.1z M26,4.6c2.4,0,4.4,2,4.4,4.4
		c0,2.4-2,4.4-4.4,4.4s-4.4-2-4.4-4.4C21.6,6.5,23.6,4.6,26,4.6z"/>
	<path d="M37.7,22.6c0-0.4-0.3-0.7-0.7-0.7c-0.4,0-0.7,0.3-0.7,0.7c0,0.4,0.3,0.7,0.7,0.7C37.4,23.4,37.7,23,37.7,22.6z"/>
	<path d="M44.6,39.9H40v-3.2c0-0.7-0.5-1.2-1.2-1.2H36l0.6-3.3c1.9-1.2,3.3-2.8,4.3-4.5c0.1,0,0.3-0.1,0.4-0.1
		c1.2-0.3,3.3-0.7,3.3-2.9c0-0.2,0-0.4,0-0.7c0-1,0.1-3.2-1.8-3.7l-0.5-0.1c-0.3-0.1-0.5-0.1-0.6-0.2c-0.2-0.7-0.5-1.3-0.8-1.9
		c0.2-0.9,0.3-2.7-0.1-6.5c0-0.3-0.2-0.6-0.5-0.8c-0.3-0.2-0.6-0.3-0.9-0.2c-2,0.3-5.5,1-6.5,1.9c-1.1,1.1-1,2.7-0.7,3.4
		c0.2,0.6,0.9,0.9,1.5,0.7c0.6-0.2,0.9-0.9,0.7-1.5c0-0.1-0.2-0.7,0-0.9c0.4-0.3,2.2-0.8,4.1-1.1c0.2,1.8,0.2,3.6,0.1,4.2
		c-0.4,0.3-0.9,0.4-1,0.5c-0.6,0.1-1,0.8-0.9,1.4c0.1,0.6,0.6,0.9,1.2,0.9c0.1,0,0.2,0,0.3,0c0.1,0,0.5-0.1,1-0.3
		c0.2,0.5,0.4,0.9,0.5,1.4c0.1,0.3,0.3,0.6,0.7,0.8c0.1,0,0.1,0,0.2,0.1c0.1,0,0.8,0.2,1.2,0.4c0.3,0.1,0.4,0.1,0.5,0.2
		c0.1,0.2,0.1,1,0.1,1.3c0,0.4,0,0.7,0,0.9c-0.2,0.2-1,0.4-1.4,0.5c-0.4,0.1-0.8,0.2-1.2,0.3c-0.3,0.1-0.5,0.3-0.6,0.6
		c-0.8,1.7-2.2,3.2-4.1,4.3c-0.3,0.2-0.5,0.5-0.5,0.8l-0.7,3.5h-2c0-0.3,0-0.7,0-1c0-0.2,0-0.4,0-0.5c0-0.4-0.2-0.7-0.4-0.9
		c-0.3-0.2-0.6-0.3-1-0.3c-1.7,0.3-3.6,0.3-5.3,0c-0.6-0.1-1.2,0.3-1.4,0.9l-0.4,1.7h-1.9l-0.2-3.2c0-0.4-0.3-0.8-0.6-0.9
		c-3.2-1.8-5.1-4.7-5.1-7.8c0.1-3.6,2.1-5.8,3.8-7c0.5-0.4,0.7-1.1,0.3-1.6c-0.4-0.5-1.1-0.7-1.6-0.3c-2.7,1.9-4.3,4.5-4.7,7.7
		c-0.1,0-0.2,0-0.4,0c0.3-0.9,0-1.7-0.7-2.4C11,17.8,9.7,17.9,9,18.6c-0.7,0.7-0.8,2,0.4,3.2c0.3,0.3,0.6,0.5,0.9,0.7
		C9.8,22.8,9.3,23,8.9,23c-0.4,0-0.7,0.3-0.7,0.8c0,0.4,0.3,0.7,0.8,0.7c0,0,0,0,0,0c0.8,0,2.2-0.6,3.1-1.5c0.4,0.1,0.9,0.1,1.2,0.1
		c0.1,3.7,2.2,7.1,5.8,9.3l0.2,3.1c0,0,0,0.1,0,0.1h-3.5c-0.7,0-1.2,0.5-1.2,1.2v3.2H10c-0.7,0-1.2,0.5-1.2,1.2v4.3
		c0,0.7,0.5,1.2,1.2,1.2h4.6v3.2c0,0.7,0.5,1.2,1.2,1.2h11.5h11.5c0.7,0,1.2-0.5,1.2-1.2v-3.2h4.6c0.7,0,1.2-0.5,1.2-1.2v-4.3
		C45.8,40.4,45.3,39.9,44.6,39.9z M11.5,21.3C11.5,21.3,11.5,21.3,11.5,21.3c-0.4-0.1-0.8-0.3-1-0.6c-0.5-0.5-0.5-1-0.4-1.1
		c0,0,0.1,0,0.1,0c0.2,0,0.5,0.1,1,0.6C11.7,20.7,11.6,21,11.5,21.3z M37.7,39.9h-4.6h-4.6v-2h9.2V39.9z M31.9,44.2h-4.6h-4.6v-2
		h4.6h4.6V44.2z M25.9,34.6c1.2,0.1,2.4,0.1,3.5,0c0,0.3,0,0.6,0.1,0.9h-2.2h-1.6L25.9,34.6z M16.9,37.9h9.2v2h-4.6h-4.6V37.9z
		 M11.2,42.2h4.6h4.6v2h-4.6h-4.6V42.2z M16.9,46.6h4.6h4.6v2h-9.2V46.6z M37.7,48.6h-9.2v-2h4.6h4.6V48.6z M43.5,44.2h-4.6h-4.6v-2
		h4.6h4.6V44.2z"/>
</g>
</symbol><symbol id="SOKA-Icon-Entsendeverfahren" viewBox="0 0 75 75">
<g>
	<path d="M57.1,29.8c-0.6-0.3-1.4-0.1-1.7,0.6l-4.2,8.4H36.6c-0.7,0-1.2,0.6-1.2,1.2s0.6,1.2,1.2,1.2h3.5L37.9,45H15
		c-0.7,0-1.2,0.6-1.2,1.2s0.6,1.2,1.2,1.2h4.5l-2.8,5c-0.3,0.6-0.1,1.4,0.5,1.7c0.2,0.1,0.4,0.2,0.6,0.2c0.4,0,0.9-0.2,1.1-0.6
		l3.5-6.2h25.2l3.7,6c0.2,0.4,0.6,0.6,1.1,0.6c0.2,0,0.4-0.1,0.6-0.2c0.6-0.4,0.8-1.1,0.4-1.7l-3.2-5.3l7.6-15.4
		C58,30.9,57.7,30.1,57.1,29.8z M43,41.3h7L48.2,45h-7.5L43,41.3z"/>
	<path d="M26.4,54c0.1,0,0.1,0,0.2,0c0.7-0.1,1.1-0.8,1-1.4L27,49.3c-0.1-0.7-0.8-1.1-1.4-1c-0.7,0.1-1.1,0.8-1,1.4l0.6,3.3
		C25.3,53.6,25.8,54,26.4,54z"/>
	<path d="M21.8,26.9c-0.7,0.1-1.1,0.8-1,1.4l2.5,14.5c0.1,0.6,0.6,1,1.2,1c0.1,0,0.1,0,0.2,0c0.7-0.1,1.1-0.8,1-1.4l-2.5-14.5
		C23.2,27.2,22.5,26.8,21.8,26.9z"/>
	<path d="M18.9,11.2c0.1,0,0.1,0,0.2,0c0.7-0.1,1.1-0.8,1-1.4l-0.3-1.9c-0.1-0.7-0.8-1.1-1.4-1c-0.7,0.1-1.1,0.8-1,1.4l0.3,1.9
		C17.8,10.8,18.3,11.2,18.9,11.2z"/>
	<path d="M13.9,29.8c0.1,0,0.2,0,0.3,0.1c0,0,0.1,0,0.1,0c0,0,0,0,0.1,0c0,0,0,0,0,0c0.1,0,0.3,0,0.4-0.1c0,0,0,0,0,0
		c0.1-0.1,0.2-0.1,0.3-0.2c0,0,2.9-2.8,6.3-3.4l1-0.2c3.5-0.5,7.1,1,7.2,1.1c0,0,0,0,0.1,0c0.1,0,0.1,0,0.2,0c0.1,0,0.1,0,0.2,0
		c0,0,0,0,0.1,0c0.1,0,0.1,0,0.2,0c0,0,0.1,0,0.1,0c0,0,0,0,0.1,0c0,0,0.1,0,0.1,0c0.1,0,0.2-0.1,0.3-0.1c0,0,0.1-0.1,0.1-0.1
		c0,0,0.1,0,0.1-0.1c0,0,1.5-1.6,4.1-2.5c2.4-0.9,5.4,0.3,5.4,0.3c0.5,0.2,1,0.1,1.3-0.3c0.4-0.4,0.5-0.9,0.3-1.3
		c-0.1-0.1-1.4-3.4-4.8-6.5c-3.1-2.8-8.6-5.9-17.2-4.8l-1.4,0.2c-16,3.6-16.8,18-16.8,18.1c0,0.5,0.3,1,0.7,1.2
		c0.2,0.1,0.3,0.1,0.5,0.1c0.3,0,0.6-0.1,0.8-0.3c0,0,2.4-2.1,5-2.1c2.7,0,4.7,1,4.7,1c0,0,0,0,0.1,0C13.8,29.8,13.8,29.8,13.9,29.8
		z M22,23.5C22,23.5,22,23.5,22,23.5l-1,0.2c-2.2,0.4-4.2,1.5-5.6,2.5c0.1-4.1,0.9-10.3,3.9-12l0.9-0.1c3.4,0.5,6.3,6.1,7.8,9.9
		C26.5,23.5,24.3,23.2,22,23.5z M38.5,21.5c-1.3-0.2-2.8-0.1-4.3,0.4c-1.5,0.5-2.7,1.3-3.5,1.9c-0.9-2.6-2.9-7.1-5.8-9.9
		C32.4,14.3,36.6,18.7,38.5,21.5z M4.9,27.3c0.9-3.3,3.3-8.8,10.2-11.8c-1.8,3.6-2.1,8.6-2.1,11.3c-1-0.3-2.4-0.6-4-0.6
		C7.4,26.3,6,26.8,4.9,27.3z"/>
	<path d="M39.8,12.1l-0.7,2.1c-0.1,0.3,0.2,0.5,0.4,0.3l1.8-1.3l1.8,1.3c0.2,0.2,0.5-0.1,0.4-0.3L43,12.1l1.8-1.3
		c0.2-0.2,0.1-0.5-0.2-0.5h-2.2l-0.7-2.1c-0.1-0.3-0.5-0.3-0.6,0l-0.7,2.1h-2.2c-0.3,0-0.4,0.4-0.2,0.5L39.8,12.1z"/>
	<path d="M52.8,15.4l-0.7,2.1c-0.1,0.3,0.2,0.5,0.4,0.3l1.8-1.3l1.8,1.3c0.2,0.2,0.5-0.1,0.4-0.3l-0.7-2.1l1.8-1.3
		c0.2-0.2,0.1-0.5-0.2-0.5h-2.2l-0.7-2.1c-0.1-0.3-0.5-0.3-0.6,0l-0.7,2.1h-2.2c-0.3,0-0.4,0.4-0.2,0.5L52.8,15.4z"/>
	<path d="M62.1,25.1l-0.7,2.1c-0.1,0.3,0.2,0.5,0.4,0.3l1.8-1.3l1.8,1.3c0.2,0.2,0.5-0.1,0.4-0.3l-0.7-2.1l1.8-1.3
		c0.2-0.2,0.1-0.5-0.2-0.5h-2.2L64,21.2c-0.1-0.3-0.5-0.3-0.6,0l-0.7,2.1h-2.2c-0.3,0-0.4,0.4-0.2,0.5L62.1,25.1z"/>
	<path d="M70.3,36.2h-2.2l-0.7-2.1c-0.1-0.3-0.5-0.3-0.6,0l-0.7,2.1H64c-0.3,0-0.4,0.4-0.2,0.5l1.8,1.3l-0.7,2.1
		c-0.1,0.3,0.2,0.5,0.4,0.3l1.8-1.3l1.8,1.3c0.2,0.2,0.5-0.1,0.4-0.3L68.7,38l1.8-1.3C70.7,36.6,70.6,36.2,70.3,36.2z"/>
	<path d="M66.8,49.2h-2.2L64,47.1c-0.1-0.3-0.5-0.3-0.6,0l-0.7,2.1h-2.2c-0.3,0-0.4,0.4-0.2,0.5l1.8,1.3l-0.7,2.1
		c-0.1,0.3,0.2,0.5,0.4,0.3l1.8-1.3l1.8,1.3c0.2,0.2,0.5-0.1,0.4-0.3L65.2,51l1.8-1.3C67.2,49.6,67.1,49.2,66.8,49.2z"/>
	<path d="M57.5,58.8h-2.2l-0.7-2.1c-0.1-0.3-0.5-0.3-0.6,0l-0.7,2.1h-2.2c-0.3,0-0.4,0.4-0.2,0.5l1.8,1.3l-0.7,2.1
		c-0.1,0.3,0.2,0.5,0.4,0.3l1.8-1.3l1.8,1.3c0.2,0.2,0.5-0.1,0.4-0.3l-0.7-2.1l1.8-1.3C57.9,59.1,57.8,58.8,57.5,58.8z"/>
	<path d="M44.5,62.1h-2.2L41.7,60c-0.1-0.3-0.5-0.3-0.6,0l-0.7,2.1h-2.2c-0.3,0-0.4,0.4-0.2,0.5l1.8,1.3L39.1,66
		c-0.1,0.3,0.2,0.5,0.4,0.3l1.8-1.3l1.8,1.3c0.2,0.2,0.5-0.1,0.4-0.3L43,63.9l1.8-1.3C44.9,62.4,44.8,62.1,44.5,62.1z"/>
	<path d="M31.7,58.8h-2.2l-0.7-2.1c-0.1-0.3-0.5-0.3-0.6,0l-0.7,2.1h-2.2c-0.3,0-0.4,0.4-0.2,0.5l1.8,1.3l-0.7,2.1
		c-0.1,0.3,0.2,0.5,0.4,0.3l1.8-1.3l1.8,1.3c0.2,0.2,0.5-0.1,0.4-0.3l-0.7-2.1l1.8-1.3C32.1,59.1,31.9,58.8,31.7,58.8z"/>
</g>
</symbol><symbol id="SOKA-Icon-Jobboerse" viewBox="0 0 55 55">
<g>
	<path d="M13.8,33.1h27.9c0.7,0,1.2-0.5,1.2-1.2v-1.8c0-7.3-5.9-13.2-13.2-13.2c-4,0-6.3,0.5-7.8,1.8c-0.8,0.7-1.4,1.7-1.7,2.2
		c-2.1,2.1-3.6,4.3-3.7,7.6L13.1,31c-0.4,0.3-0.6,0.8-0.4,1.3C12.8,32.8,13.3,33.1,13.8,33.1z M18.3,30.2c0.3-0.2,0.5-0.6,0.5-1
		c0-3,1.2-4.7,3.2-6.7c0.1-0.1,0.2-0.2,0.2-0.3c0.1-0.3,0.6-1.2,1.1-1.6c1.1-0.9,3-1.3,6.3-1.3c6,0,10.8,4.9,10.8,10.8v0.6h-23
		L18.3,30.2z"/>
	<path d="M29.8,20.3c-1.3-0.3-2.9,0-4.4,0.6c-1,0.4-1.9,1-2.6,1.7c-0.5,0.5-0.5,1.2,0,1.7c0.2,0.2,0.5,0.3,0.8,0.3
		c0.3,0,0.6-0.1,0.8-0.3c0.5-0.5,1.1-0.9,1.9-1.2c1-0.5,2.2-0.6,3-0.5c0.6,0.1,1.3-0.3,1.4-0.9C30.8,21.1,30.4,20.4,29.8,20.3z"/>
	<path d="M47.4,10.5H8c-0.7,0-1.2,0.5-1.2,1.2v27.2c0,0.7,0.5,1.2,1.2,1.2s1.2-0.5,1.2-1.2v-26h37.1v24.8H21.5
		c-0.7,0-1.2,0.5-1.2,1.2s0.5,1.2,1.2,1.2h25.9c0.7,0,1.2-0.5,1.2-1.2V11.7C48.6,11,48.1,10.5,47.4,10.5z"/>
	<path d="M18.2,35.3c-0.4-0.3-0.9-0.2-1.3,0l-5,3.6c-0.3,0.2-0.5,0.6-0.5,1c0,0.4,0.2,0.8,0.6,1l1,0.6l-0.8,1.3
		c-0.3,0.6-0.2,1.3,0.4,1.6c0.2,0.1,0.4,0.2,0.6,0.2c0.4,0,0.8-0.2,1-0.6l0.8-1.3l1,0.6c0.2,0.1,0.4,0.2,0.6,0.2
		c0.2,0,0.3,0,0.5-0.1c0.4-0.2,0.6-0.5,0.7-0.9l1.1-6C18.8,36,18.6,35.6,18.2,35.3z"/>
</g>
</symbol><symbol id="SOKA-Icon-Leistungen" viewBox="0 0 55 55">
<g>
	<path d="M52,25.7c-0.6-0.3-1.4-0.1-1.7,0.6l-4.2,8.4H31.5c-0.7,0-1.2,0.6-1.2,1.2s0.6,1.2,1.2,1.2H35l-2.2,3.7H9.9
		c-0.7,0-1.2,0.6-1.2,1.2s0.6,1.2,1.2,1.2h4.5l-2.8,5c-0.3,0.6-0.1,1.4,0.5,1.7c0.2,0.1,0.4,0.2,0.6,0.2c0.4,0,0.9-0.2,1.1-0.6
		l3.5-6.2h25.2l3.7,6c0.2,0.4,0.6,0.6,1.1,0.6c0.2,0,0.4-0.1,0.6-0.2c0.6-0.4,0.8-1.1,0.4-1.7L45,42.8l7.6-15.4
		C52.9,26.8,52.6,26,52,25.7z M37.9,37.2h7l-1.8,3.7h-7.5L37.9,37.2z"/>
	<path d="M26,44.2c-0.7,0.1-1.1,0.8-1,1.4l0.6,3.3c0.1,0.6,0.6,1,1.2,1c0.1,0,0.1,0,0.2,0c0.7-0.1,1.1-0.8,1-1.4l-0.6-3.3
		C27.3,44.5,26.6,44.1,26,44.2z"/>
	<path d="M22.2,22.8c-0.7,0.1-1.1,0.8-1,1.4l2.5,14.5c0.1,0.6,0.6,1,1.2,1c0.1,0,0.1,0,0.2,0c0.7-0.1,1.1-0.8,1-1.4l-2.5-14.5
		C23.5,23.1,22.9,22.7,22.2,22.8z"/>
	<path d="M19.2,7.1c0.1,0,0.1,0,0.2,0c0.7-0.1,1.1-0.8,1-1.4l-0.3-1.9c-0.1-0.7-0.8-1.1-1.4-1c-0.7,0.1-1.1,0.8-1,1.4L18,6.1
		C18.1,6.7,18.6,7.1,19.2,7.1z"/>
	<path d="M14,25.6C14,25.7,14.1,25.7,14,25.6c0.1,0,0.2,0.1,0.2,0.1c0.1,0,0.2,0,0.3,0.1c0,0,0.1,0,0.1,0c0,0,0,0,0.1,0c0,0,0,0,0,0
		c0.1,0,0.3,0,0.4-0.1c0,0,0,0,0.1,0c0.1-0.1,0.2-0.1,0.3-0.2c0,0,2.9-2.8,6.3-3.4l1-0.2c3.5-0.5,7.1,1,7.2,1.1c0,0,0,0,0.1,0
		c0.1,0,0.1,0,0.2,0c0.1,0,0.1,0,0.2,0c0,0,0,0,0.1,0c0.1,0,0.1,0,0.2,0c0,0,0.1,0,0.1,0c0,0,0,0,0.1,0c0,0,0.1,0,0.1,0
		c0.1,0,0.2-0.1,0.3-0.1c0,0,0.1-0.1,0.1-0.1c0,0,0.1,0,0.1-0.1c0,0,1.5-1.6,4.1-2.5c2.4-0.9,5.4,0.3,5.4,0.3c0.5,0.2,1,0.1,1.3-0.3
		s0.5-0.9,0.3-1.3c-0.1-0.1-1.4-3.4-4.8-6.5C34.5,9.5,29,6.3,20.5,7.4l-1.4,0.2c-16,3.6-16.8,18-16.8,18.1c0,0.5,0.3,1,0.7,1.2
		c0.2,0.1,0.3,0.1,0.5,0.1c0.3,0,0.6-0.1,0.8-0.3c0,0,2.4-2.1,5-2.1C12.1,24.6,14,25.6,14,25.6z M22.4,19.4
		C22.4,19.4,22.4,19.4,22.4,19.4l-1,0.2c-2.2,0.4-4.2,1.5-5.6,2.5c0.1-4.1,0.9-10.3,3.9-12l0.9-0.1c3.4,0.5,6.3,6.1,7.8,9.9
		C26.8,19.4,24.6,19.1,22.4,19.4z M38.8,17.4c-1.3-0.2-2.8-0.1-4.3,0.4c-1.5,0.5-2.7,1.3-3.5,1.9c-0.9-2.6-2.9-7.1-5.8-9.9
		C32.8,10.2,36.9,14.6,38.8,17.4z M15.4,11.5c-1.8,3.6-2.1,8.6-2.1,11.3c-1-0.3-2.4-0.6-4-0.6c-1.5,0-3,0.5-4.1,1.1
		C6.1,20,8.6,14.4,15.4,11.5z"/>
</g>
</symbol><symbol id="SOKA-Icon-Mindestlohnpruefung" viewBox="0 0 55 55">
<g>
	<path d="M18.3,27.9c-2.3,0-4.5,0.9-6.1,2.5c-3.1,3.1-3.4,8-0.8,11.4l-5.6,5.6c-0.5,0.5-0.5,1.2,0,1.7c0.2,0.2,0.5,0.3,0.8,0.3
		s0.6-0.1,0.8-0.3l5.6-5.6c1.5,1.1,3.3,1.8,5.3,1.8c2.3,0,4.5-0.9,6.1-2.5c3.4-3.4,3.4-8.9,0-12.3C22.8,28.8,20.7,27.9,18.3,27.9z
		 M22.8,41c-1.2,1.2-2.8,1.9-4.5,1.9S15,42.2,13.9,41c-2.5-2.5-2.5-6.5,0-9c1.2-1.2,2.8-1.9,4.5-1.9s3.3,0.7,4.5,1.9
		C25.3,34.6,25.3,38.6,22.8,41z"/>
	<path d="M50.8,17.3h-3.9L15,3.8c-0.6-0.3-1.3,0-1.5,0.6L7.3,19.1c-0.3,0.6,0,1.3,0.6,1.5l8.5,3.6v0.2c0,0.7,0.5,1.2,1.2,1.2
		s1.2-0.5,1.2-1.2v-1c0,0,0,0,0,0v-3.7h27.9c0,0,0,0,0,0h2.9v13.5H31.3c-0.7,0-1.2,0.5-1.2,1.2s0.5,1.2,1.2,1.2h19.5
		c0.7,0,1.2-0.5,1.2-1.2V18.5C52,17.8,51.5,17.3,50.8,17.3z M17.6,17.3c-0.7,0-1.2,0.5-1.2,1.2v3.1l-6.5-2.7l5.3-12.5l25.7,10.9
		H17.6z"/>
	<path d="M31.4,28.5c0.7,1.9,2.2,3.2,4.1,3.2c0.7,0,1.2-0.5,1.2-1.2s-0.5-1.2-1.2-1.2c-0.6,0-1.1-0.3-1.5-0.9h2
		c0.4,0,0.8-0.3,0.8-0.8c0-0.4-0.3-0.8-0.8-0.8h-2.6c0-0.2,0-0.3,0-0.5c0-0.1,0-0.2,0-0.3h2.6c0.4,0,0.8-0.3,0.8-0.8
		s-0.3-0.8-0.8-0.8h-2.2c0.4-0.7,1-1.1,1.6-1.1s1.2-0.5,1.2-1.2s-0.5-1.2-1.2-1.2c-1.9,0-3.5,1.5-4.1,3.5h-1.1
		c-0.4,0-0.8,0.3-0.8,0.8s0.3,0.8,0.8,0.8h0.8c0,0.1,0,0.2,0,0.3c0,0.2,0,0.3,0,0.5h-0.8c-0.4,0-0.8,0.3-0.8,0.8
		c0,0.4,0.3,0.8,0.8,0.8H31.4z"/>
</g>
</symbol><symbol id="SOKA-Icon-Rentenverfahren" viewBox="0 0 55 55">
<g>
	<path d="M46.7,26.9L46,26.7c-0.3-0.1-0.6-0.2-0.8-0.2c-0.3-0.9-0.6-1.7-1-2.5c0.3-1,0.4-3.1-0.2-7.7c0-0.3-0.2-0.6-0.5-0.8
		s-0.6-0.3-0.9-0.2c-1.9,0.3-6.5,1.1-7.6,2.2c-1.3,1.2-1.1,3-0.8,3.9c0.2,0.6,0.9,0.9,1.5,0.7c0.6-0.2,0.9-0.9,0.7-1.5
		c0,0-0.3-1,0.1-1.4c0.5-0.4,2.9-1,5.2-1.4c0.2,2.3,0.3,4.7,0.1,5.4c-0.6,0.5-1.4,0.6-1.4,0.6c-0.6,0.1-1,0.8-0.9,1.4
		c0.1,0.6,0.6,0.9,1.2,0.9c0.1,0,0.2,0,0.3,0c0.1,0,0.7-0.2,1.4-0.5c0.3,0.6,0.5,1.3,0.7,2c0.1,0.4,0.4,0.7,0.7,0.8c0,0,0.1,0,0.1,0
		c0.1,0,0.8,0.3,1.4,0.4c0.4,0.1,0.6,0.2,0.7,0.2l0,0c0.3,0.1,0.2,1.3,0.2,1.8c0,0.4,0,0.8,0,1.1c0,0.4-1.2,0.6-1.9,0.8
		c-0.5,0.1-1,0.2-1.4,0.4c-0.3,0.1-0.5,0.3-0.6,0.6c-1,2.1-2.7,3.9-4.9,5.2c-0.3,0.2-0.5,0.5-0.5,0.8l-0.8,4.4h-2.8c0-0.4,0-1,0-1.4
		c0-0.2,0-0.4,0-0.6c0-0.4-0.2-0.7-0.4-0.9c-0.3-0.2-0.6-0.3-1-0.3c-2,0.4-4.3,0.4-6.4,0c-0.6-0.1-1.2,0.3-1.4,0.9l-0.5,2.2h-2.6
		l-0.3-4c0-0.4-0.3-0.8-0.6-0.9c-3.9-2.2-6.2-5.8-6.2-9.5c0.1-4.4,2.6-7.1,4.6-8.6c0.5-0.4,0.7-1.1,0.3-1.6
		c-0.4-0.5-1.1-0.7-1.6-0.3c-3.2,2.3-5.1,5.4-5.5,9.1c-0.3,0-0.5,0-0.9,0c0.4-1,0.1-2.1-0.8-3c-0.6-0.6-1.3-1-2-1.2
		c-0.7-0.1-1.3,0-1.7,0.5c-0.8,0.8-0.8,2.3,0.5,3.6c0.4,0.4,0.8,0.7,1.3,0.9c-0.7,0.5-1.5,0.8-2,0.8c-0.4,0-0.7,0.3-0.7,0.8
		c0,0.4,0.3,0.7,0.8,0.7c0,0,0,0,0,0c1,0,2.6-0.7,3.7-1.8c0.6,0.1,1.2,0.1,1.7,0.1c0.1,4.4,2.6,8.5,6.9,11.1l0.3,3.8
		c0.1,1,0.9,1.8,2,1.8h3.3c0.9,0,1.7-0.7,1.9-1.6l0.3-1.4c1.5,0.2,3.1,0.2,4.6,0c0,0.9,0.1,1.8,0.7,2.4c0.3,0.4,0.8,0.5,1.3,0.5h3.6
		c0.9,0,1.6-0.6,1.8-1.5l0.8-4.4c2.2-1.5,4-3.3,5.2-5.5c0.2,0,0.4-0.1,0.6-0.1c1.3-0.3,3.8-0.8,3.7-3.2c0-0.2,0-0.5,0-0.8
		C48.7,29.8,48.8,27.4,46.7,26.9z M9.5,28c0,0.1-0.1,0.1-0.1,0.2c-0.5-0.2-1-0.4-1.4-0.8c-0.6-0.6-0.7-1.3-0.5-1.5
		c0.1-0.1,0.2-0.1,0.2-0.1c0.1,0,0.1,0,0.2,0c0.2,0,0.6,0.2,1.2,0.8C9.8,27.2,9.7,27.6,9.5,28z"/>
	<path d="M22.7,20.9c-1.5,0.5-2.4,1.1-2.4,1.1c-0.3,0.2-0.4,0.7-0.2,1c0.2,0.3,0.7,0.4,1,0.2c0,0,1.8-1.3,4.7-1.4c0.3,0,0.5,0,0.8,0
		c0.2,0,0.4,0,0.6,0c2.7,0.2,4.2,1.4,4.2,1.4c0.1,0.1,0.3,0.2,0.5,0.2c0.2,0,0.4-0.1,0.6-0.3c0.3-0.3,0.2-0.8-0.1-1.1
		c0,0-0.7-0.6-2-1c2.9-1.4,5-4.4,5-7.8c0-4.8-3.9-8.7-8.7-8.7S18,8.4,18,13.2C18,16.6,19.9,19.5,22.7,20.9z M26.7,6.9
		c3.5,0,6.3,2.8,6.3,6.3c0,3.5-2.8,6.3-6.3,6.3c-3.5,0-6.3-2.8-6.3-6.3C20.3,9.7,23.2,6.9,26.7,6.9z"/>
	<circle cx="39.8" cy="29.5" r="0.9"/>
</g>
</symbol><symbol id="SOKA-Icon-Siko" viewBox="0 0 55 55">
<g>
	<path d="M38,5.1c-7.5,0-13.6,6.1-13.6,13.6c0,1.2,0.2,2.4,0.5,3.5c0.2,0.6,0.8,1,1.4,0.8c0.6-0.2,1-0.8,0.8-1.4
		c-0.3-0.9-0.4-1.9-0.4-2.9c0-6.2,5-11.2,11.2-11.2s11.2,5,11.2,11.2c0,6.2-5,11.2-11.2,11.2c-0.6,0-1.2,0-1.8-0.1
		c-0.6-0.1-1.2,0.3-1.4,1c-0.1,0.6,0.3,1.2,1,1.4c0.7,0.1,1.5,0.2,2.2,0.2c7.5,0,13.6-6.1,13.6-13.6S45.5,5.1,38,5.1z"/>
	<path d="M37.3,26.6v1.2c0,0.4,0.3,0.8,0.8,0.8s0.8-0.3,0.8-0.8v-1.2c0-0.4-0.3-0.8-0.8-0.8S37.3,26.2,37.3,26.6z"/>
	<path d="M47.2,19.4c0.4,0,0.8-0.3,0.8-0.8s-0.3-0.8-0.8-0.8H46c-0.4,0-0.8,0.3-0.8,0.8s0.3,0.8,0.8,0.8H47.2z"/>
	<path d="M30,19.4c0.4,0,0.8-0.3,0.8-0.8s-0.3-0.8-0.8-0.8h-1.2c-0.4,0-0.8,0.3-0.8,0.8s0.3,0.8,0.8,0.8H30z"/>
	<path d="M43.7,13.8c0.2,0,0.4-0.1,0.5-0.2l0.8-0.8c0.3-0.3,0.3-0.8,0-1.1s-0.8-0.3-1.1,0l-0.8,0.8c-0.3,0.3-0.3,0.8,0,1.1
		C43.3,13.7,43.5,13.8,43.7,13.8z"/>
	<path d="M43.1,24.8l0.8,0.8c0.1,0.1,0.3,0.2,0.5,0.2s0.4-0.1,0.5-0.2c0.3-0.3,0.3-0.8,0-1.1l-0.8-0.8c-0.3-0.3-0.8-0.3-1.1,0
		S42.8,24.5,43.1,24.8z"/>
	<path d="M32.4,13.8c0.2,0,0.4-0.1,0.5-0.2c0.3-0.3,0.3-0.8,0-1.1l-0.8-0.8c-0.3-0.3-0.8-0.3-1.1,0s-0.3,0.8,0,1.1l0.8,0.8
		C32,13.7,32.2,13.8,32.4,13.8z"/>
	<path d="M11.5,21.5H5c-0.7,0-1.2,0.5-1.2,1.2v22.1C3.8,45.5,4.4,46,5,46h6.5c0.7,0,1.2-0.5,1.2-1.2V22.7
		C12.7,22.1,12.2,21.5,11.5,21.5z M10.3,43.6H6.2V23.9h4.1V43.6z"/>
	<path d="M32.7,24.6h-6.5c-0.7,0-1.2,0.5-1.2,1.2v19c0,0.7,0.5,1.2,1.2,1.2h6.5c0.7,0,1.2-0.5,1.2-1.2v-19
		C33.9,25.2,33.4,24.6,32.7,24.6z M31.5,43.6h-4.1V27h4.1V43.6z"/>
	<path d="M43.2,37.1h-6.5c-0.7,0-1.2,0.5-1.2,1.2v6.5c0,0.7,0.5,1.2,1.2,1.2h6.5c0.7,0,1.2-0.5,1.2-1.2v-6.5
		C44.4,37.7,43.9,37.1,43.2,37.1z M42.1,43.6h-4.1v-4.1h4.1V43.6z"/>
	<path d="M22.2,30.5h-6.5c-0.7,0-1.2,0.5-1.2,1.2v13.2c0,0.7,0.5,1.2,1.2,1.2h6.5c0.7,0,1.2-0.5,1.2-1.2V31.7
		C23.4,31,22.9,30.5,22.2,30.5z M21,43.6h-4.1V32.8H21V43.6z"/>
	<path d="M37.5,19.3l3.5,3.6c0.1,0.1,0.3,0.2,0.5,0.2c0.2,0,0.4-0.1,0.5-0.2c0.3-0.3,0.3-0.8,0-1.1l-3.4-3.4L36,12
		c-0.2-0.4-0.6-0.6-1-0.4s-0.6,0.6-0.4,1l2.7,6.4C37.4,19.1,37.4,19.2,37.5,19.3z"/>
	<path d="M38.8,10.4V9.2c0-0.4-0.3-0.8-0.8-0.8s-0.8,0.3-0.8,0.8v1.3c0,0.4,0.3,0.8,0.8,0.8S38.8,10.8,38.8,10.4z"/>
</g>
</symbol><symbol id="SOKA-Icon-Zusatzrente" viewBox="5 4 48 48">
<g>
	<path d="M46.7,26.9L46,26.7c-0.3-0.1-0.6-0.2-0.8-0.2c-0.3-0.9-0.6-1.7-1-2.5c0.3-1,0.4-3.1-0.2-7.7c0-0.3-0.2-0.6-0.5-0.8
		s-0.6-0.3-0.9-0.2c-1.9,0.3-6.5,1.1-7.6,2.2c-1.3,1.2-1.1,3-0.8,3.9c0.2,0.6,0.9,0.9,1.5,0.7c0.6-0.2,0.9-0.9,0.7-1.5
		c0,0-0.3-1,0.1-1.4c0.5-0.4,2.9-1,5.2-1.4c0.2,2.3,0.3,4.7,0.1,5.4c-0.6,0.5-1.4,0.6-1.4,0.6c-0.6,0.1-1,0.8-0.9,1.4
		c0.1,0.6,0.6,0.9,1.2,0.9c0.1,0,0.2,0,0.3,0c0.1,0,0.7-0.2,1.4-0.5c0.3,0.6,0.5,1.3,0.7,2c0.1,0.4,0.4,0.7,0.7,0.8c0,0,0.1,0,0.1,0
		c0.1,0,0.8,0.3,1.4,0.4c0.4,0.1,0.6,0.2,0.7,0.2l0,0c0.3,0.1,0.2,1.3,0.2,1.8c0,0.4,0,0.8,0,1.1c0,0.4-1.2,0.6-1.9,0.8
		c-0.5,0.1-1,0.2-1.4,0.4c-0.3,0.1-0.5,0.3-0.6,0.6c-1,2.1-2.7,3.9-4.9,5.2c-0.3,0.2-0.5,0.5-0.5,0.8l-0.8,4.4h-2.8c0-0.4,0-1,0-1.4
		c0-0.2,0-0.4,0-0.6c0-0.4-0.2-0.7-0.4-0.9c-0.3-0.2-0.6-0.3-1-0.3c-2,0.4-4.3,0.4-6.4,0c-0.6-0.1-1.2,0.3-1.4,0.9l-0.5,2.2h-2.6
		l-0.3-4c0-0.4-0.3-0.8-0.6-0.9c-3.9-2.2-6.2-5.7-6.2-9.5c0.1-4.4,2.6-7.1,4.6-8.6c0.5-0.4,0.7-1.1,0.3-1.6
		c-0.4-0.5-1.1-0.7-1.6-0.3c-3.2,2.3-5.1,5.4-5.5,9.1c-0.3,0-0.5,0-0.9,0c0.4-1,0.1-2.1-0.8-3c-0.6-0.6-1.3-1-2-1.2
		c-0.7-0.1-1.3,0-1.7,0.5c-0.8,0.8-0.8,2.3,0.5,3.6c0.4,0.4,0.8,0.7,1.3,0.9c-0.7,0.5-1.5,0.8-2,0.8c-0.4,0-0.7,0.3-0.7,0.8
		c0,0.4,0.3,0.7,0.8,0.7c0,0,0,0,0,0c1,0,2.6-0.7,3.6-1.8c0.6,0.1,1.2,0.1,1.7,0.1c0.1,4.4,2.6,8.5,6.9,11.1l0.3,3.8
		c0.1,1,0.9,1.8,2,1.8h3.3c0.9,0,1.7-0.7,1.9-1.6l0.3-1.4c1.5,0.2,3.1,0.2,4.6,0c0,0.9,0.1,1.8,0.7,2.4c0.3,0.4,0.8,0.5,1.3,0.5h3.6
		c0.9,0,1.6-0.6,1.8-1.5l0.8-4.4c2.2-1.5,4-3.3,5.2-5.5c0.2,0,0.4-0.1,0.6-0.1c1.3-0.3,3.8-0.8,3.7-3.2c0-0.2,0-0.5,0-0.8
		C48.7,29.8,48.8,27.4,46.7,26.9z M9.5,28c0,0.1-0.1,0.1-0.1,0.2c-0.5-0.2-1-0.4-1.4-0.8c-0.6-0.6-0.7-1.3-0.5-1.5
		c0.1-0.1,0.2-0.1,0.2-0.1c0.1,0,0.1,0,0.2,0c0.2,0,0.6,0.2,1.2,0.8C9.8,27.2,9.7,27.6,9.5,28z"/>
	<path d="M22.7,20.9c-1.5,0.5-2.4,1.1-2.4,1.1c-0.3,0.2-0.4,0.7-0.2,1c0.2,0.3,0.7,0.4,1,0.2c0,0,1.9-1.3,4.9-1.4c0.2,0,0.4,0,0.6,0
		c0.1,0,0.3,0,0.4,0c2.8,0.2,4.3,1.4,4.3,1.4c0.1,0.1,0.3,0.2,0.5,0.2c0.2,0,0.4-0.1,0.6-0.3c0.3-0.3,0.2-0.8-0.1-1.1
		c0,0-0.7-0.6-2-1.1c2.9-1.4,5-4.4,5-7.8c0-4.8-3.9-8.7-8.7-8.7S18,8.4,18,13.2C18,16.6,19.9,19.5,22.7,20.9z M26.7,6.9
		c3.5,0,6.3,2.8,6.3,6.3c0,3.5-2.8,6.3-6.3,6.3c-3.5,0-6.3-2.8-6.3-6.3C20.3,9.7,23.2,6.9,26.7,6.9z"/>
	<path d="M40.7,29.5c0-0.5-0.4-0.9-0.9-0.9s-0.9,0.4-0.9,0.9c0,0.5,0.4,0.9,0.9,0.9S40.7,30,40.7,29.5z"/>
	<path d="M23.4,14h2.4v2.4c0,0.4,0.4,0.8,0.8,0.8s0.8-0.4,0.8-0.8V14h2.4c0.4,0,0.8-0.4,0.8-0.8s-0.4-0.8-0.8-0.8h-2.4V10
		c0-0.4-0.4-0.8-0.8-0.8s-0.8,0.4-0.8,0.8v2.4h-2.4c-0.4,0-0.8,0.4-0.8,0.8S23,14,23.4,14z"/>
</g>
</symbol>

<symbol id="house" viewBox="0 0 23.147 21">
	<path d="M23.147,13.131,11.573,4.147,0,13.131V9.468L11.573.484,23.147,9.468ZM20.254,12.8v8.68H14.467V15.7H8.68v5.787H2.893V12.8l8.68-6.51Z" transform="translate(0 -0.484)" fill="#404040" />
</symbol>

<symbol id="hamburger">
	<path d="M1,3H15V6H1ZM1,7H15v3H1Zm0,4H15v3H1Z" transform="translate(-1 -3)" />
</symbol>


 <symbol id="de-flagge" viewBox="0 0 15 12">
	<g transform="translate(-0.434 -1.762)">
		<rect id="Rechteck_23" data-name="Rechteck 23" width="15" height="4" transform="translate(0.434 1.762)" />
		<rect id="Rechteck_24" data-name="Rechteck 24" width="15" height="4" transform="translate(0.434 5.762)" fill="#d00000" />
		<rect id="Rechteck_25" data-name="Rechteck 25" width="15" height="4" transform="translate(0.434 9.762)" fill="#f2cd00" />
	</g>
</symbol>


<symbol id="Icon-Profil">
	<g transform="translate(0 -7)">
		<path id="M-2014.907,4911.653a16.343,16.343,0,0,1,8.6-2.962v-1.523a8.243,8.243,0,0,1-3.693-6.86c0-4.588,0-8.308,5.538-8.308s5.54,3.72,5.54,8.308a8.243,8.243,0,0,1-3.693,6.86v1.523a16.4,16.4,0,0,1,8.559,2.929,15.936,15.936,0,0,1-10.445,3.88A15.94,15.94,0,0,1-2014.907,4911.653Z" transform="translate(2021 -4876)" fill="#404040" opacity="0.999" />
		<g id="Ellipse_19" data-name="Ellipse 19" transform="translate(0 7)" fill="none" stroke="#404040" stroke-width="1" opacity="0.999">
			<circle cx="16.5" cy="16.5" r="16.5" stroke="none" />
			<circle cx="16.5" cy="16.5" r="16" fill="none" />
		</g>
	</g>
</symbol>
<symbol id="149-cog">
<path fill="#000000" d="M14.59 9.535c-0.839-1.454-0.335-3.317 1.127-4.164l-1.572-2.723c-0.449 0.263-0.972 0.414-1.529 0.414-1.68 0-3.042-1.371-3.042-3.062h-3.145c0.004 0.522-0.126 1.051-0.406 1.535-0.839 1.454-2.706 1.948-4.17 1.106l-1.572 2.723c0.453 0.257 0.845 0.634 1.123 1.117 0.838 1.452 0.336 3.311-1.12 4.16l1.572 2.723c0.448-0.261 0.967-0.41 1.522-0.41 1.675 0 3.033 1.362 3.042 3.046h3.145c-0.001-0.517 0.129-1.040 0.406-1.519 0.838-1.452 2.7-1.947 4.163-1.11l1.572-2.723c-0.45-0.257-0.839-0.633-1.116-1.113zM8 11.24c-1.789 0-3.24-1.45-3.24-3.24s1.45-3.24 3.24-3.24c1.789 0 3.24 1.45 3.24 3.24s-1.45 3.24-3.24 3.24z"/>
</symbol><symbol id="266-question">
<path fill="#000000" d="M7 11h2v2h-2zM11 4c0.552 0 1 0.448 1 1v3l-3 2h-2v-1l3-2v-1h-5v-2h6zM8 1.5c-1.736 0-3.369 0.676-4.596 1.904s-1.904 2.86-1.904 4.596c0 1.736 0.676 3.369 1.904 4.596s2.86 1.904 4.596 1.904c1.736 0 3.369-0.676 4.596-1.904s1.904-2.86 1.904-4.596c0-1.736-0.676-3.369-1.904-4.596s-2.86-1.904-4.596-1.904zM8 0v0c4.418 0 8 3.582 8 8s-3.582 8-8 8c-4.418 0-8-3.582-8-8s3.582-8 8-8z"/>
</symbol><symbol id="277-exit">
<path fill="#000000" d="M12 10v-2h-5v-2h5v-2l3 3zM11 9v4h-5v3l-6-3v-13h11v5h-1v-4h-8l4 2v9h4v-3z"/>
</symbol><symbol id="070-envelop" viewBox="0 0 16 16">
<path fill="#000000" d="M14.5 2h-13c-0.825 0-1.5 0.675-1.5 1.5v10c0 0.825 0.675 1.5 1.5 1.5h13c0.825 0 1.5-0.675 1.5-1.5v-10c0-0.825-0.675-1.5-1.5-1.5zM6.23 8.6l-4.23 3.295v-7.838l4.23 4.543zM2.756 4h10.488l-5.244 3.938-5.244-3.938zM6.395 8.777l1.605 1.723 1.605-1.723 3.29 4.223h-9.79l3.29-4.223zM9.77 8.6l4.23-4.543v7.838l-4.23-3.295z"/>
</symbol></svg>
